<mxfile host="app.diagrams.net" modified="2020-10-01T06:21:02.731Z" agent="5.0 (Windows NT 10.0; Win64; x64) AppleWebKit/537.36 (KHTML, like Gecko) Chrome/85.0.4183.121 Safari/537.36" etag="DkMlue_vMhJjgSG2K5A0" version="13.7.7" type="github" pages="3">
  <diagram id="OhG8lLr3wyOGNPxtDcFM" name="Page-1">
    <mxGraphModel dx="2370" dy="1270" grid="1" gridSize="10" guides="1" tooltips="1" connect="1" arrows="1" fold="1" page="1" pageScale="1" pageWidth="827" pageHeight="1169" math="0" shadow="0">
      <root>
        <mxCell id="0" />
        <mxCell id="1" parent="0" />
        <mxCell id="DzatYgbJUiVVY3OvYPIM-1" value="" style="whiteSpace=wrap;html=1;aspect=fixed;" parent="1" vertex="1">
          <mxGeometry x="160" y="140" width="1200" height="1200" as="geometry" />
        </mxCell>
        <mxCell id="DzatYgbJUiVVY3OvYPIM-2" value="" style="whiteSpace=wrap;html=1;aspect=fixed;" parent="1" vertex="1">
          <mxGeometry x="240" y="260" width="620" height="620" as="geometry" />
        </mxCell>
        <mxCell id="DzatYgbJUiVVY3OvYPIM-3" value="&lt;span style=&quot;font-size: 40px&quot;&gt;Imagen&amp;nbsp;&lt;/span&gt;" style="text;html=1;strokeColor=none;fillColor=none;align=center;verticalAlign=middle;whiteSpace=wrap;rounded=0;" parent="1" vertex="1">
          <mxGeometry x="390" y="410" width="320" height="320" as="geometry" />
        </mxCell>
        <mxCell id="DzatYgbJUiVVY3OvYPIM-4" value="&lt;font size=&quot;7&quot;&gt;&lt;b&gt;producto y su&amp;nbsp;cantidad de litros&lt;/b&gt;&lt;/font&gt;" style="text;html=1;strokeColor=none;fillColor=none;align=center;verticalAlign=middle;whiteSpace=wrap;rounded=0;" parent="1" vertex="1">
          <mxGeometry x="876" y="310" width="430" height="200" as="geometry" />
        </mxCell>
        <mxCell id="DzatYgbJUiVVY3OvYPIM-5" value="&lt;font style=&quot;font-size: 45px&quot;&gt;$precio&lt;/font&gt;" style="text;html=1;strokeColor=none;fillColor=none;align=center;verticalAlign=middle;whiteSpace=wrap;rounded=0;fontSize=21;" parent="1" vertex="1">
          <mxGeometry x="941" y="570" width="300" height="200" as="geometry" />
        </mxCell>
        <mxCell id="DzatYgbJUiVVY3OvYPIM-6" value="&lt;span style=&quot;font-size: 45px&quot;&gt;&lt;b&gt;Comprar&amp;nbsp;&lt;/b&gt;&lt;/span&gt;" style="text;html=1;align=center;verticalAlign=middle;whiteSpace=wrap;rounded=0;fontSize=21;strokeColor=#5E7BA6;fillColor=#007FFF;" parent="1" vertex="1">
          <mxGeometry x="899" y="860" width="384" height="110" as="geometry" />
        </mxCell>
        <mxCell id="DzatYgbJUiVVY3OvYPIM-7" value="&lt;b&gt;&lt;font style=&quot;font-size: 48px&quot;&gt;carrito&lt;/font&gt;&lt;/b&gt;" style="text;html=1;strokeColor=#6c8ebf;align=center;verticalAlign=middle;whiteSpace=wrap;rounded=0;fontSize=21;fillColor=#007FFF;" parent="1" vertex="1">
          <mxGeometry x="899" y="1050" width="390" height="100" as="geometry" />
        </mxCell>
        <mxCell id="DzatYgbJUiVVY3OvYPIM-8" value="&lt;font style=&quot;font-size: 40px&quot;&gt;Graduación alcohólica&amp;nbsp;&lt;br&gt;Características del producto&lt;br&gt;Como es el proceso de creación&amp;nbsp;&lt;/font&gt;" style="text;html=1;strokeColor=none;fillColor=none;align=center;verticalAlign=middle;whiteSpace=wrap;rounded=0;fontSize=21;" parent="1" vertex="1">
          <mxGeometry x="250" y="900" width="490" height="330" as="geometry" />
        </mxCell>
      </root>
    </mxGraphModel>
  </diagram>
  <diagram id="8sHCON4ht9VUjWR1bNQs" name="Page-2">
    <mxGraphModel dx="2946" dy="1536" grid="1" gridSize="10" guides="1" tooltips="1" connect="1" arrows="1" fold="1" page="1" pageScale="1" pageWidth="827" pageHeight="1169" math="0" shadow="0">
      <root>
        <mxCell id="FLeCUgqzSWVfP23sDxG7-0" />
        <mxCell id="FLeCUgqzSWVfP23sDxG7-1" parent="FLeCUgqzSWVfP23sDxG7-0" />
        <mxCell id="7ko9cK7hZdaCzW7y0LKQ-0" value="" style="whiteSpace=wrap;html=1;aspect=fixed;" parent="FLeCUgqzSWVfP23sDxG7-1" vertex="1">
          <mxGeometry x="240" y="120" width="1200" height="1200" as="geometry" />
        </mxCell>
        <mxCell id="7ko9cK7hZdaCzW7y0LKQ-1" value="" style="whiteSpace=wrap;html=1;aspect=fixed;" parent="FLeCUgqzSWVfP23sDxG7-1" vertex="1">
          <mxGeometry x="320" y="240" width="620" height="620" as="geometry" />
        </mxCell>
        <mxCell id="7ko9cK7hZdaCzW7y0LKQ-2" value="&lt;span style=&quot;font-size: 40px&quot;&gt;Imagen&amp;nbsp;&lt;/span&gt;" style="text;html=1;strokeColor=none;fillColor=none;align=center;verticalAlign=middle;whiteSpace=wrap;rounded=0;" parent="FLeCUgqzSWVfP23sDxG7-1" vertex="1">
          <mxGeometry x="470" y="360" width="320" height="320" as="geometry" />
        </mxCell>
        <mxCell id="7ko9cK7hZdaCzW7y0LKQ-3" value="&lt;font size=&quot;7&quot;&gt;&lt;b&gt;producto y su&amp;nbsp;cantidad de litros&lt;/b&gt;&lt;/font&gt;" style="text;html=1;strokeColor=none;fillColor=none;align=center;verticalAlign=middle;whiteSpace=wrap;rounded=0;" parent="FLeCUgqzSWVfP23sDxG7-1" vertex="1">
          <mxGeometry x="950" y="190" width="430" height="200" as="geometry" />
        </mxCell>
        <mxCell id="7ko9cK7hZdaCzW7y0LKQ-4" value="&lt;font style=&quot;font-size: 45px&quot;&gt;$precio&lt;/font&gt;" style="text;html=1;strokeColor=none;fillColor=none;align=center;verticalAlign=middle;whiteSpace=wrap;rounded=0;fontSize=21;" parent="FLeCUgqzSWVfP23sDxG7-1" vertex="1">
          <mxGeometry x="260" y="110" width="220" height="130" as="geometry" />
        </mxCell>
        <mxCell id="7ko9cK7hZdaCzW7y0LKQ-5" value="&lt;span style=&quot;font-size: 45px&quot;&gt;&lt;b&gt;Comprar&amp;nbsp;&lt;/b&gt;&lt;/span&gt;" style="text;html=1;align=center;verticalAlign=middle;whiteSpace=wrap;rounded=0;fontSize=21;strokeColor=#5E7BA6;fillColor=#007FFF;" parent="FLeCUgqzSWVfP23sDxG7-1" vertex="1">
          <mxGeometry x="296" y="930" width="384" height="110" as="geometry" />
        </mxCell>
        <mxCell id="7ko9cK7hZdaCzW7y0LKQ-6" value="&lt;b&gt;&lt;font style=&quot;font-size: 48px&quot;&gt;carrito&lt;/font&gt;&lt;/b&gt;" style="text;html=1;strokeColor=#6c8ebf;align=center;verticalAlign=middle;whiteSpace=wrap;rounded=0;fontSize=21;fillColor=#007FFF;" parent="FLeCUgqzSWVfP23sDxG7-1" vertex="1">
          <mxGeometry x="290" y="1140" width="390" height="100" as="geometry" />
        </mxCell>
        <mxCell id="7ko9cK7hZdaCzW7y0LKQ-7" value="&lt;font style=&quot;font-size: 40px&quot;&gt;Graduación alcohólica&amp;nbsp;&lt;br&gt;Características del producto&lt;br&gt;Como es el proceso de creación&amp;nbsp;&lt;/font&gt;" style="text;html=1;strokeColor=none;fillColor=none;align=center;verticalAlign=middle;whiteSpace=wrap;rounded=0;fontSize=21;" parent="FLeCUgqzSWVfP23sDxG7-1" vertex="1">
          <mxGeometry x="950" y="620" width="460" height="320" as="geometry" />
        </mxCell>
      </root>
    </mxGraphModel>
  </diagram>
  <diagram id="YQ7EBliyZT3NHj7X6m0U" name="Page-3">
    <mxGraphModel dx="2370" dy="1270" grid="1" gridSize="10" guides="1" tooltips="1" connect="1" arrows="1" fold="1" page="1" pageScale="1" pageWidth="827" pageHeight="1169" math="0" shadow="0">
      <root>
        <mxCell id="2Cu6oZ5dd-XjrIRJfJcB-0" />
        <mxCell id="2Cu6oZ5dd-XjrIRJfJcB-1" parent="2Cu6oZ5dd-XjrIRJfJcB-0" />
        <mxCell id="NQ0WCU6EAPzyOwTOeYJF-0" value="" style="whiteSpace=wrap;html=1;aspect=fixed;" parent="2Cu6oZ5dd-XjrIRJfJcB-1" vertex="1">
          <mxGeometry x="160" y="120" width="1200" height="1200" as="geometry" />
        </mxCell>
        <mxCell id="NQ0WCU6EAPzyOwTOeYJF-1" value="" style="whiteSpace=wrap;html=1;aspect=fixed;" parent="2Cu6oZ5dd-XjrIRJfJcB-1" vertex="1">
          <mxGeometry x="680" y="200" width="620" height="620" as="geometry" />
        </mxCell>
        <mxCell id="NQ0WCU6EAPzyOwTOeYJF-2" value="&lt;span style=&quot;font-size: 40px&quot;&gt;Imagen&amp;nbsp;&lt;/span&gt;" style="text;html=1;strokeColor=none;fillColor=none;align=center;verticalAlign=middle;whiteSpace=wrap;rounded=0;" parent="2Cu6oZ5dd-XjrIRJfJcB-1" vertex="1">
          <mxGeometry x="827" y="340" width="320" height="320" as="geometry" />
        </mxCell>
        <mxCell id="NQ0WCU6EAPzyOwTOeYJF-3" value="&lt;font size=&quot;7&quot;&gt;&lt;b&gt;producto y su&amp;nbsp;cantidad de litros&lt;/b&gt;&lt;/font&gt;" style="text;html=1;strokeColor=none;fillColor=none;align=center;verticalAlign=middle;whiteSpace=wrap;rounded=0;" parent="2Cu6oZ5dd-XjrIRJfJcB-1" vertex="1">
          <mxGeometry x="199" y="200" width="430" height="200" as="geometry" />
        </mxCell>
        <mxCell id="NQ0WCU6EAPzyOwTOeYJF-4" value="&lt;font style=&quot;font-size: 45px&quot;&gt;$precio&lt;/font&gt;" style="text;html=1;strokeColor=none;fillColor=none;align=center;verticalAlign=middle;whiteSpace=wrap;rounded=0;fontSize=21;" parent="2Cu6oZ5dd-XjrIRJfJcB-1" vertex="1">
          <mxGeometry x="280" y="490" width="300" height="200" as="geometry" />
        </mxCell>
        <mxCell id="NQ0WCU6EAPzyOwTOeYJF-5" value="&lt;span style=&quot;font-size: 45px&quot;&gt;&lt;b&gt;Comprar&amp;nbsp;&lt;/b&gt;&lt;/span&gt;" style="text;html=1;align=center;verticalAlign=middle;whiteSpace=wrap;rounded=0;fontSize=21;strokeColor=#5E7BA6;fillColor=#007FFF;" parent="2Cu6oZ5dd-XjrIRJfJcB-1" vertex="1">
          <mxGeometry x="820" y="880" width="384" height="110" as="geometry" />
        </mxCell>
        <mxCell id="NQ0WCU6EAPzyOwTOeYJF-6" value="&lt;b&gt;&lt;font style=&quot;font-size: 48px&quot;&gt;carrito&lt;/font&gt;&lt;/b&gt;" style="text;html=1;strokeColor=#6c8ebf;align=center;verticalAlign=middle;whiteSpace=wrap;rounded=0;fontSize=21;fillColor=#007FFF;" parent="2Cu6oZ5dd-XjrIRJfJcB-1" vertex="1">
          <mxGeometry x="820" y="1080" width="390" height="100" as="geometry" />
        </mxCell>
        <mxCell id="NQ0WCU6EAPzyOwTOeYJF-7" value="&lt;font style=&quot;font-size: 40px&quot;&gt;Graduación alcohólica&amp;nbsp;&lt;br&gt;Características del producto&lt;br&gt;Como es el proceso de creación&amp;nbsp;&lt;/font&gt;" style="text;html=1;strokeColor=none;fillColor=none;align=center;verticalAlign=middle;whiteSpace=wrap;rounded=0;fontSize=21;" parent="2Cu6oZ5dd-XjrIRJfJcB-1" vertex="1">
          <mxGeometry x="185" y="880" width="490" height="330" as="geometry" />
        </mxCell>
      </root>
    </mxGraphModel>
  </diagram>
</mxfile>
